<?xml version="1.0" encoding="UTF-8"?>
<!-- Generator: visioncortex VTracer 0.6.12 -->
<svg version="1.1" xmlns="http://www.w3.org/2000/svg" width="2048" height="2048">
<path d="M0,0 L2048,0 L2048,2048 L0,2048 Z " fill="#FEFEFE" transform="translate(0,0)"/>
<path d="M0,0 L2,0 L2,2 L4,2 L4,4 L8,6 L18,16 L18,18 L20,18 L25,23 L36,35 L41,40 L48,47 L48,49 L52,51 L58,58 L61,60 L61,62 L63,62 L70,70 L83,83 L88,88 L103,103 L108,108 L109,111 L111,111 L111,113 L115,115 L116,119 L111,124 L103,133 L101,133 L99,137 L91,145 L85,152 L83,152 L83,154 L81,154 L81,156 L79,156 L77,160 L72,166 L69,169 L67,169 L67,171 L63,175 L61,175 L61,177 L59,177 L57,181 L55,184 L53,184 L53,186 L51,186 L51,188 L49,188 L49,190 L44,195 L41,199 L39,199 L38,202 L33,207 L31,207 L31,209 L29,209 L27,213 L23,217 L21,217 L19,221 L15,225 L13,225 L13,228 L11,228 L11,230 L9,230 L9,232 L7,232 L7,234 L5,234 L5,236 L3,236 L3,238 L1,238 L1,240 L-1,240 L-1,242 L-3,242 L-5,246 L-9,251 L-11,251 L-11,253 L-13,253 L-13,255 L-15,255 L-15,257 L-17,257 L-19,261 L-28,270 L-33,275 L-35,278 L-37,278 L-37,280 L-39,280 L-41,284 L-52,295 L-53,297 L-55,297 L-57,301 L-74,318 L-75,320 L-77,320 L-77,322 L-79,322 L-81,326 L-85,330 L-87,330 L-89,334 L-97,343 L-99,343 L-101,347 L-105,349 L-107,353 L-118,364 L-119,366 L-121,366 L-121,368 L-125,372 L-127,372 L-127,374 L-129,374 L-131,378 L-137,384 L-139,384 L-140,388 L-146,393 L-149,397 L-151,397 L-151,399 L-153,399 L-155,403 L-182,430 L-186,436 L-188,436 L-188,438 L-196,445 L-203,453 L-205,453 L-207,457 L-211,459 L-213,463 L-217,468 L-221,472 L-223,472 L-223,474 L-225,474 L-225,476 L-227,476 L-229,480 L-242,493 L-249,501 L-265,517 L-267,520 L-269,520 L-271,524 L-277,531 L-282,535 L-289,543 L-293,545 L-295,550 L-303,557 L-313,568 L-315,568 L-317,572 L-323,579 L-325,579 L-327,583 L-348,604 L-355,612 L-366,623 L-367,625 L-369,625 L-369,627 L-374,631 L-381,639 L-393,651 L-400,659 L-412,671 L-419,679 L-441,701 L-448,709 L-462,723 L-469,731 L-481,743 L-488,751 L-502,765 L-509,773 L-517,781 L-520,784 L-521,781 L-523,781 L-532,770 L-539,763 L-546,755 L-559,741 L-559,739 L-561,739 L-561,737 L-563,737 L-570,729 L-579,719 L-590,707 L-599,697 L-610,685 L-617,677 L-629,664 L-636,656 L-641,651 L-641,649 L-643,649 L-650,641 L-659,631 L-670,619 L-679,609 L-686,601 L-693,594 L-700,586 L-704,583 L-707,578 L-712,573 L-712,571 L-715,570 L-721,563 L-721,561 L-723,561 L-730,553 L-741,541 L-748,533 L-755,526 L-762,518 L-773,506 L-780,498 L-786,491 L-784,487 L-776,480 L-765,469 L-757,462 L-733,438 L-727,433 L-722,428 L-717,423 L-703,409 L-696,403 L-695,401 L-693,401 L-691,397 L-686,392 L-676,383 L-674,383 L-672,379 L-668,379 L-659,389 L-652,397 L-637,413 L-631,420 L-628,423 L-621,431 L-611,442 L-606,447 L-601,451 L-598,456 L-589,465 L-589,467 L-587,467 L-580,475 L-571,485 L-559,498 L-559,500 L-555,502 L-553,506 L-551,506 L-543,516 L-536,523 L-529,531 L-525,536 L-520,541 L-519,544 L-517,544 L-515,540 L-504,529 L-497,521 L-481,505 L-478,501 L-476,501 L-474,497 L-457,480 L-450,472 L-436,458 L-432,453 L-427,448 L-410,431 L-403,423 L-398,418 L-389,409 L-382,401 L-366,385 L-359,377 L-351,369 L-344,361 L-330,347 L-329,345 L-327,345 L-325,341 L-318,335 L-314,331 L-313,328 L-305,321 L-295,309 L-289,305 L-282,297 L-277,292 L-274,286 L-270,282 L-266,282 L-264,278 L-259,270 L-255,269 L-255,267 L-247,260 L-238,250 L-231,243 L-226,238 L-220,231 L-218,231 L-218,229 L-216,229 L-214,225 L-207,217 L-195,205 L-192,201 L-190,201 L-188,197 L-186,197 L-186,195 L-184,195 L-182,191 L-176,184 L-170,179 L-168,176 L-166,176 L-164,172 L-156,164 L-154,164 L-152,159 L-144,151 L-139,146 L-136,142 L-134,142 L-132,138 L-121,127 L-114,119 L-111,118 L-109,114 L-106,113 L-104,109 L-94,99 L-89,93 L-84,89 L-83,86 L-77,81 L-72,76 L-66,68 L-57,61 L-50,53 L-45,47 L-39,40 L-37,40 L-37,38 L-32,34 L-31,32 L-29,32 L-27,28 L-18,19 L-13,14 L-8,8 L-3,3 L0,2 Z " fill="#1B4A79" transform="translate(1452,478)"/>
<path d="M0,0 L5,0 L5,9 L4,15 L2,42 L1,45 L-1,68 L-2,78 L-3,79 L-5,105 L-7,117 L-10,143 L-15,189 L-17,203 L-19,227 L-22,249 L-23,251 L-26,250 L-26,247 L-32,245 L-32,243 L-34,243 L-41,235 L-45,233 L-52,225 L-57,221 L-57,219 L-61,218 L-62,215 L-65,215 L-67,211 L-71,209 L-76,203 L-78,202 L-78,199 L-82,198 L-82,196 L-86,196 L-88,200 L-92,204 L-94,209 L-97,209 L-97,211 L-102,216 L-106,218 L-108,224 L-110,224 L-111,229 L-113,229 L-113,231 L-115,231 L-115,233 L-118,234 L-119,237 L-122,240 L-124,240 L-125,243 L-127,243 L-129,247 L-132,252 L-137,257 L-139,257 L-141,261 L-143,264 L-145,264 L-147,269 L-149,269 L-151,273 L-153,276 L-155,276 L-157,280 L-163,288 L-165,288 L-165,290 L-169,294 L-170,296 L-172,296 L-174,300 L-177,304 L-179,304 L-181,309 L-183,309 L-183,311 L-185,311 L-187,315 L-193,323 L-195,323 L-195,325 L-197,325 L-197,327 L-199,327 L-200,332 L-203,332 L-205,336 L-211,344 L-213,344 L-215,349 L-217,349 L-219,353 L-223,358 L-225,358 L-227,362 L-232,369 L-235,372 L-239,377 L-241,377 L-241,379 L-243,379 L-244,383 L-249,388 L-254,395 L-257,398 L-258,400 L-260,400 L-261,403 L-263,403 L-265,407 L-271,415 L-273,415 L-275,419 L-277,422 L-279,422 L-279,424 L-281,424 L-283,429 L-285,429 L-287,433 L-296,444 L-298,444 L-298,447 L-303,452 L-305,452 L-307,456 L-313,464 L-315,464 L-316,468 L-321,473 L-323,473 L-325,479 L-327,479 L-327,481 L-330,484 L-332,484 L-334,488 L-337,492 L-339,492 L-344,487 L-357,475 L-371,462 L-373,461 L-373,459 L-375,459 L-375,457 L-379,455 L-394,441 L-397,439 L-397,437 L-401,435 L-410,426 L-418,419 L-428,410 L-441,398 L-446,394 L-449,391 L-449,389 L-453,387 L-461,379 L-469,372 L-479,364 L-479,362 L-483,360 L-488,355 L-493,350 L-497,351 L-501,353 L-501,355 L-505,358 L-507,358 L-507,360 L-515,366 L-517,366 L-517,368 L-525,374 L-527,374 L-527,376 L-535,383 L-539,386 L-541,386 L-541,388 L-549,394 L-551,394 L-551,396 L-562,405 L-573,414 L-575,414 L-575,416 L-585,424 L-587,424 L-587,426 L-599,435 L-600,438 L-606,441 L-608,444 L-613,447 L-625,457 L-627,457 L-629,461 L-638,468 L-645,474 L-646,476 L-652,478 L-653,481 L-662,488 L-675,499 L-685,507 L-687,507 L-687,509 L-696,516 L-709,527 L-713,530 L-715,530 L-715,532 L-724,539 L-739,552 L-743,555 L-745,555 L-745,557 L-751,562 L-753,562 L-753,564 L-762,571 L-765,572 L-765,574 L-769,577 L-771,577 L-771,579 L-775,580 L-775,582 L-777,582 L-777,584 L-781,587 L-783,587 L-783,589 L-791,595 L-789,590 L-779,576 L-775,569 L-773,569 L-771,564 L-767,558 L-762,553 L-754,541 L-751,536 L-749,536 L-747,532 L-739,520 L-727,504 L-718,492 L-709,479 L-701,468 L-690,453 L-684,443 L-680,439 L-674,430 L-665,418 L-657,406 L-655,406 L-653,401 L-651,398 L-649,398 L-647,393 L-639,382 L-632,372 L-631,370 L-629,370 L-627,365 L-615,349 L-611,342 L-609,342 L-607,337 L-598,325 L-593,317 L-591,317 L-589,312 L-585,306 L-583,306 L-581,301 L-575,293 L-565,278 L-563,278 L-561,273 L-559,270 L-557,270 L-555,266 L-549,258 L-546,253 L-541,246 L-539,246 L-538,241 L-531,232 L-529,228 L-527,228 L-525,224 L-522,219 L-520,219 L-518,213 L-516,213 L-514,208 L-510,203 L-502,192 L-501,189 L-499,189 L-499,187 L-497,187 L-497,185 L-493,187 L-489,189 L-489,191 L-485,193 L-478,201 L-475,202 L-474,204 L-471,205 L-464,213 L-461,215 L-461,217 L-457,217 L-451,225 L-449,226 L-449,228 L-445,230 L-440,235 L-432,243 L-427,246 L-422,251 L-414,258 L-403,269 L-395,276 L-385,285 L-383,286 L-383,288 L-379,289 L-379,291 L-375,293 L-370,298 L-358,309 L-348,317 L-343,316 L-341,311 L-334,303 L-329,298 L-323,290 L-321,290 L-319,286 L-315,281 L-313,281 L-311,277 L-307,272 L-305,272 L-305,269 L-303,269 L-301,265 L-291,254 L-283,244 L-272,232 L-267,224 L-264,224 L-262,220 L-249,204 L-247,204 L-245,200 L-238,191 L-232,184 L-225,176 L-215,165 L-209,157 L-207,157 L-205,152 L-203,152 L-201,148 L-194,139 L-189,134 L-185,129 L-183,129 L-181,125 L-179,121 L-174,117 L-172,113 L-176,111 L-183,105 L-183,103 L-187,101 L-204,85 L-217,73 L-230,61 L-230,59 L-224,57 L-210,54 L-183,47 L-167,43 L-143,37 L-142,36 L-132,34 L-112,29 L-103,26 L-86,23 L-83,21 L-64,17 L-56,15 L-49,15 L-49,13 L-42,11 L-19,5 L-10,2 Z " fill="#1C4A79" transform="translate(1274,374)"/>
<path d="M0,0 L119,0 L134,2 L152,7 L167,15 L177,23 L182,27 L191,40 L196,50 L201,66 L203,77 L203,97 L200,115 L195,128 L188,140 L177,152 L167,160 L153,167 L132,173 L126,174 L50,174 L50,271 L1,271 L0,270 Z " fill="#1D4B77" transform="translate(1093,1401)"/>
<path d="M0,0 L123,0 L144,5 L157,10 L161,12 L161,14 L167,16 L177,24 L185,32 L194,48 L199,64 L201,72 L201,102 L197,120 L192,131 L185,142 L174,154 L164,161 L148,168 L135,172 L122,174 L50,174 L50,271 L1,271 L0,270 Z " fill="#1E4B77" transform="translate(198,1401)"/>
<path d="M0,0 L33,0 L50,4 L66,12 L77,19 L90,31 L100,46 L107,61 L110,70 L113,85 L114,94 L114,117 L111,138 L106,154 L98,169 L90,180 L79,191 L65,200 L52,206 L41,209 L29,211 L6,211 L-12,208 L-30,201 L-41,194 L-51,185 L-61,174 L-67,164 L-74,149 L-79,130 L-80,124 L-80,86 L-75,65 L-67,47 L-58,33 L-48,22 L-37,14 L-26,8 L-13,3 Z " fill="#1E4B77" transform="translate(1597,1465)"/>
<path d="M0,0 L28,0 L44,3 L56,8 L69,15 L72,17 L72,19 L76,21 L85,30 L93,43 L98,54 L103,70 L106,85 L106,121 L-28,121 L-24,138 L-19,148 L-12,157 L-4,163 L6,168 L14,170 L32,170 L43,167 L52,163 L58,159 L67,151 L71,145 L75,147 L82,154 L84,155 L84,157 L88,159 L98,167 L100,170 L99,174 L92,182 L83,191 L69,200 L57,206 L45,209 L33,211 L6,211 L-15,206 L-25,202 L-36,196 L-49,185 L-58,175 L-64,166 L-72,150 L-76,134 L-78,124 L-78,85 L-74,67 L-68,51 L-58,34 L-56,34 L-54,30 L-50,25 L-39,16 L-29,10 L-19,5 L-5,1 Z " fill="#1E4B77" transform="translate(947,1465)"/>
<path d="M0,0 L31,0 L49,4 L63,10 L73,17 L81,24 L88,32 L96,48 L99,56 L101,72 L101,77 L54,77 L51,64 L44,51 L36,45 L25,41 L7,41 L0,43 L-8,47 L-14,52 L-21,62 L-25,73 L-28,89 L-28,120 L-25,136 L-20,149 L-13,159 L-5,165 L5,169 L26,169 L38,165 L46,158 L50,150 L52,144 L53,137 L54,136 L101,136 L101,147 L97,162 L91,174 L84,183 L78,190 L65,199 L55,204 L48,207 L26,211 L8,211 L-8,209 L-23,204 L-38,196 L-48,188 L-57,178 L-66,164 L-73,148 L-77,130 L-78,121 L-78,90 L-75,70 L-69,53 L-59,34 L-47,21 L-37,14 L-21,6 L-10,2 Z " fill="#1E4B76" transform="translate(742,1465)"/>
<path d="M0,0 L6,0 L6,57 L48,57 L48,96 L6,96 L7,209 L13,218 L21,222 L37,222 L45,219 L48,219 L48,259 L31,263 L1,263 L-14,259 L-24,253 L-31,246 L-37,236 L-42,223 L-44,211 L-44,96 L-75,96 L-75,58 L-74,57 L-43,57 L-43,9 L-30,6 L-4,1 Z " fill="#1F4C78" transform="translate(1802,1412)"/>
<path d="M0,0 L49,0 L49,285 L-1,285 L-1,1 Z " fill="#204E7A" transform="translate(1430,1387)"/>
<path d="M0,0 L21,0 L21,48 L-5,48 L-14,51 L-22,55 L-27,59 L-33,68 L-38,84 L-39,90 L-40,207 L-89,207 L-89,4 L-43,4 L-41,32 L-38,29 L-33,20 L-27,13 L-14,4 L-10,2 Z " fill="#1E4B77" transform="translate(522,1465)"/>
<path d="M0,0 L50,0 L50,203 L0,203 Z " fill="#214F79" transform="translate(575,1469)"/>
<path d="M0,0 L50,0 L50,203 L0,203 Z " fill="#1C4B79" transform="translate(1332,1469)"/>
<path d="M0,0 L18,0 L28,3 L37,9 L44,16 L51,28 L55,42 L57,51 L57,77 L54,93 L49,106 L43,116 L34,124 L24,129 L20,130 L-1,130 L-11,126 L-19,121 L-19,119 L-23,117 L-28,110 L-35,93 L-37,82 L-37,49 L-32,29 L-27,19 L-21,11 L-11,4 Z " fill="#FAFCFC" transform="translate(1604,1505)"/>
<path d="M0,0 L66,0 L75,2 L85,7 L91,12 L98,22 L102,35 L102,53 L99,65 L93,75 L84,83 L75,87 L63,90 L0,90 Z " fill="#FBFCFC" transform="translate(1143,1443)"/>
<path d="M0,0 L64,0 L74,2 L84,8 L89,12 L96,22 L100,35 L100,53 L97,64 L93,72 L86,80 L76,86 L66,89 L59,90 L0,90 Z " fill="#FBFCFC" transform="translate(248,1443)"/>
<path d="M0,0 L18,0 L27,3 L36,8 L36,10 L40,12 L46,22 L50,33 L51,44 L-34,44 L-33,36 L-30,26 L-24,15 L-17,8 L-10,3 Z " fill="#F9FBFB" transform="translate(953,1505)"/>
<path d="M0,0 L15,0 L25,3 L27,4 L27,6 L31,8 L35,13 L38,22 L38,34 L35,43 L27,52 L15,57 L1,57 L-11,51 L-16,45 L-19,41 L-21,35 L-21,21 L-15,9 L-8,3 Z " fill="#1F4C78" transform="translate(1348,1386)"/>
<path d="M0,0 L15,0 L26,6 L32,13 L35,20 L35,35 L31,44 L24,52 L11,57 L-1,57 L-10,53 L-18,46 L-22,39 L-23,35 L-23,20 L-19,12 L-12,4 L-6,1 Z " fill="#214C77" transform="translate(594,1386)"/>
<path d="M0,0 L1,2 L3,2 L3,16 L4,16 L4,32 L1,52 L-2,78 L-7,124 L-9,138 L-11,162 L-14,184 L-15,186 L-18,185 L-16,184 L-12,144 L-9,114 L-6,92 L-4,75 L-4,64 L-5,74 L-6,75 L-6,82 L-8,80 L-7,78 L-12,77 L-9,72 L-7,72 L-5,56 L-2,51 L-2,50 L-4,46 L-5,45 L-8,46 L-10,41 L-13,43 L-15,42 L-15,40 L-17,40 L-17,47 L-18,48 L-15,49 L-17,50 L-18,57 L-17,59 L-22,60 L-23,64 L-26,65 L-25,70 L-27,74 L-29,73 L-27,68 L-31,69 L-33,72 L-35,73 L-38,73 L-41,71 L-39,71 L-39,69 L-34,68 L-33,66 L-37,67 L-37,65 L-32,62 L-31,60 L-36,59 L-37,62 L-39,64 L-41,62 L-42,58 L-43,61 L-45,59 L-43,59 L-41,55 L-39,55 L-38,53 L-37,55 L-35,54 L-35,52 L-39,52 L-38,48 L-36,48 L-35,46 L-34,50 L-32,50 L-30,54 L-27,48 L-24,47 L-23,45 L-26,45 L-27,47 L-29,47 L-33,42 L-34,37 L-31,34 L-29,30 L-33,32 L-35,36 L-40,33 L-40,30 L-42,31 L-42,37 L-45,36 L-45,28 L-47,24 L-44,19 L-43,21 L-41,21 L-40,18 L-39,21 L-37,22 L-37,24 L-35,24 L-33,20 L-31,20 L-31,22 L-23,23 L-22,21 L-19,25 L-18,29 L-16,31 L-14,29 L-15,25 L-12,22 L-10,19 L-8,18 L-5,12 L-8,12 L-9,9 L-7,9 L-5,5 L-3,7 L-1,4 L-3,2 Z M-41,22 L-40,24 L-39,22 Z M-11,33 L-10,35 L-9,33 Z M-17,34 L-16,38 L-13,36 L-14,34 Z M-13,35 Z M-40,56 L-39,58 Z M-31,19 Z M-19,23 Z M-34,46 Z M-44,61 L-43,63 L-41,64 L-42,65 L-42,70 L-49,72 L-49,69 L-44,66 Z M-25,67 Z M-53,71 L-49,72 L-51,73 Z " fill="#1E4C7B" transform="translate(1266,439)"/>
<path d="M0,0 L50,0 L50,203 L0,203 L0,123 L3,123 L3,133 L3,137 L2,142 L3,144 L3,159 L2,163 L2,175 L3,176 L3,201 L12,200 L47,200 L47,79 L46,47 L47,44 L47,3 L44,4 L34,3 L12,4 L7,5 L5,5 L5,9 L2,12 L2,31 L3,39 L3,50 L2,59 L3,67 L3,71 L3,87 L4,91 L3,96 L3,118 L0,118 Z " fill="#45627F" transform="translate(1332,1469)"/>
<path d="M0,0 L42,0 L38,2 L10,2 L6,4 L6,7 L3,7 L3,16 L5,16 L3,21 L2,22 L3,33 L2,46 L2,76 L4,77 L2,77 L2,107 L3,111 L2,117 L2,282 L46,281 L45,270 L44,266 L44,254 L47,244 L45,243 L44,237 L47,236 L47,231 L48,231 L48,283 L0,283 Z M4,75 Z " fill="#1F4064" transform="translate(1430,1388)"/>
<path d="M0,0 L48,0 L48,123 L46,121 L45,113 L47,113 L46,106 L46,47 L44,46 L46,44 L46,24 L45,19 L46,12 L45,4 L44,2 L24,3 L20,3 L5,3 L3,9 L3,14 L5,15 L3,24 L3,39 L4,42 L3,46 L3,153 L2,156 L0,156 Z " fill="#274667" transform="translate(576,1470)"/>
<path d="M0,0 L3,1 L2,269 L47,269 L46,262 L47,239 L49,239 L49,270 L0,270 Z " fill="#2E4B67" transform="translate(198,1401)"/>
<path d="M0,0 L3,0 L4,4 L3,7 L5,7 L6,5 L7,8 L5,11 L2,10 L1,13 L-3,16 L-2,18 L0,20 L-1,25 L-6,28 L-8,25 L-10,26 L-10,24 L-12,24 L-13,27 L-17,27 L-18,32 L-21,33 L-22,30 L-18,25 L-21,21 L-21,19 L-23,19 L-26,22 L-28,21 L-27,18 L-25,18 L-25,16 L-21,13 L-19,11 L-23,11 L-23,9 L-34,12 L-39,12 L-37,10 L-34,9 L-27,9 L-27,7 L-20,5 Z M-15,21 L-14,23 Z M-17,23 L-16,25 L-15,23 Z M-30,21 L-28,22 L-30,23 Z M-9,28 L-7,29 Z " fill="#1D4B7B" transform="translate(1252,380)"/>
<path d="M0,0 L6,0 L2,1 L3,17 L3,24 L4,27 L3,29 L2,39 L3,49 L4,54 L5,63 L2,69 L3,72 L2,74 L4,74 L3,93 L3,192 L4,194 L2,201 L0,201 Z " fill="#264666" transform="translate(433,1470)"/>
<path d="M0,0 L2,0 L2,3 L5,2 L5,12 L3,12 L3,15 L7,13 L6,10 L10,9 L12,9 L12,11 L6,16 L4,16 L4,18 L-5,25 L-8,26 L-8,28 L-12,31 L-14,31 L-14,33 L-18,34 L-18,36 L-20,36 L-20,38 L-24,41 L-26,41 L-26,43 L-34,49 L-32,44 L-22,30 L-18,23 L-16,23 L-14,18 L-10,12 L-5,7 Z " fill="#22476B" transform="translate(517,920)"/>
<path d="M0,0 L5,2 L6,12 L5,16 L6,24 L8,24 L8,37 L-126,37 L-127,40 L-127,36 L-32,35 L-15,34 L-13,34 L-13,31 L-7,33 L-2,32 L-1,23 L-1,12 L-2,6 Z " fill="#4E6F91" transform="translate(1045,1549)"/>
<path d="M0,0 L3,0 L3,138 L0,138 L-1,130 L-1,122 L0,118 L-1,116 L0,111 L-2,106 L0,100 L-1,98 L-1,90 L1,89 L1,84 L-1,80 L-1,59 L-2,51 L-1,46 L0,39 L-1,36 L0,31 L-1,26 L0,20 L-1,16 L-1,7 Z M-1,20 Z M-1,84 Z " fill="#1D436B" transform="translate(1475,1480)"/>
<path d="M0,0 L1,0 L2,5 L3,5 L3,19 L1,32 L-1,55 L-2,65 L-4,66 L-3,50 L0,22 L0,15 L-2,34 L-5,35 L-5,31 L-9,32 L-12,43 L-10,44 L-11,47 L-16,51 L-21,52 L-22,54 L-23,51 L-21,50 L-20,44 L-22,44 L-24,38 L-23,35 L-19,34 L-18,36 L-14,36 L-15,33 L-13,29 L-13,26 L-10,25 L-9,21 L-5,19 L-2,20 L-1,6 L-3,5 Z M-23,44 Z " fill="#355E87" transform="translate(1274,387)"/>
<path d="M0,0 L1,0 L1,37 L32,37 L32,145 L34,145 L36,152 L36,161 L38,161 L40,166 L41,174 L40,177 L42,178 L42,181 L44,181 L45,184 L47,185 L47,187 L51,188 L52,191 L56,192 L56,194 L60,194 L60,196 L57,196 L56,198 L50,194 L41,184 L35,171 L33,165 L31,153 L31,38 L0,38 Z " fill="#5C7590" transform="translate(1727,1470)"/>
<path d="M0,0 L66,0 L75,2 L71,4 L65,4 L61,3 L57,4 L53,3 L52,5 L48,3 L45,4 L43,6 L43,4 L38,5 L37,5 L36,3 L24,3 L21,3 L12,2 L5,3 L4,8 L3,17 L3,44 L2,45 L1,90 L0,90 Z " fill="#D0E0EB" transform="translate(1143,1443)"/>
<path d="M0,0 L1,0 L1,16 L-2,36 L-5,62 L-10,108 L-12,122 L-14,146 L-17,168 L-18,170 L-21,169 L-19,168 L-15,128 L-12,98 L-9,76 L-7,59 L-7,48 L-8,58 L-9,59 L-9,66 L-11,64 L-10,62 L-15,61 L-12,56 L-10,56 L-8,40 L-5,35 L-3,28 Z " fill="#849AAE" transform="translate(1269,455)"/>
<path d="M0,0 L21,0 L21,48 L-5,48 L-14,51 L-20,50 L-21,52 L-24,51 L-23,49 L-19,49 L-19,47 L-5,46 L-4,44 L3,46 L3,44 L9,45 L10,42 L13,42 L13,38 L14,33 L16,31 L18,20 L19,7 L17,7 L18,4 L17,2 L0,1 Z M15,38 L16,40 Z " fill="#274A6E" transform="translate(522,1465)"/>
<path d="M0,0 L2,0 L3,114 L-1,112 L-1,105 L0,103 L-1,100 L0,91 L-1,78 L-1,69 L0,66 L-2,60 L-1,57 L-1,48 L-2,45 L-1,40 L-1,27 L-2,23 L-5,23 L-5,19 L-2,17 L0,6 Z " fill="#244467" transform="translate(1805,1507)"/>
<path d="M0,0 L5,5 L14,22 L19,37 L23,56 L23,79 L21,79 L21,74 L19,73 L19,68 L20,64 L19,59 L19,51 L17,42 L12,42 L10,41 L11,30 L10,27 L11,23 L9,17 L7,17 L6,13 L3,12 L1,7 L-1,6 Z " fill="#2A4A6D" transform="translate(1030,1494)"/>
<path d="M0,0 L5,0 L5,91 L1,91 L2,83 L2,80 L1,73 L3,63 L2,58 L1,54 L4,45 L2,45 L1,39 L1,30 L1,27 L1,15 L4,13 L2,13 L1,9 L3,4 L2,1 Z M1,62 Z " fill="#1E436A" transform="translate(1473,1388)"/>
<path d="M0,0 L2,0 L2,3 L4,3 L2,9 L-4,20 L-12,31 L-23,42 L-37,51 L-37,48 L-37,45 L-32,44 L-32,42 L-28,41 L-28,39 L-24,39 L-23,34 L-18,35 L-18,33 L-16,33 L-16,31 L-18,30 L-16,28 L-16,24 L-12,23 L-12,20 L-8,19 L-7,11 L-6,13 L-2,12 L-2,3 L0,3 Z " fill="#284A6E" transform="translate(1699,1614)"/>
<path d="M0,0 L2,0 L4,10 L4,32 L3,36 L4,42 L3,50 L4,68 L4,106 L3,110 L1,110 L1,2 L-5,2 L-5,1 Z " fill="#274668" transform="translate(1758,1505)"/>
<path d="M0,0 L4,2 L8,2 L9,5 L5,6 L-68,6 L-68,33 L-70,33 L-71,4 L-70,1 L-68,1 L-68,4 L-65,3 L-63,4 L-1,3 Z " fill="#214364" transform="translate(315,1569)"/>
<path d="M0,0 L1,2 L0,4 L-2,4 L-2,6 L-4,6 L-4,8 L-7,11 L-8,14 L-12,14 L-12,16 L-14,16 L-14,18 L-16,18 L-16,20 L-22,24 L-24,29 L-26,29 L-27,32 L-34,38 L-35,43 L-39,43 L-42,48 L-48,53 L-50,53 L-51,50 L-38,37 L-35,33 L-33,33 L-31,29 L-29,29 L-29,27 L-27,27 L-25,23 L-19,16 L-13,11 L-11,8 L-9,8 L-7,4 L-4,2 L-2,3 L-2,1 Z " fill="#2F5174" transform="translate(1295,646)"/>
<path d="M0,0 L3,1 L1,1 L2,3 L4,3 L3,6 L-8,15 L-19,24 L-21,24 L-21,26 L-30,33 L-44,45 L-46,45 L-45,40 L-43,40 L-43,38 L-40,37 L-38,34 L-36,34 L-36,32 L-32,29 L-29,29 L-29,24 L-27,24 L-27,22 L-25,22 L-25,20 L-20,21 L-19,18 L-12,15 L-12,13 L-12,10 L-10,10 L-10,8 L-6,7 L-5,4 L-2,4 L-2,6 L0,6 L-1,3 Z " fill="#2A4B6D" transform="translate(580,880)"/>
<path d="M0,0 L6,1 L0,9 L-5,17 L-9,31 L-11,42 L-12,77 L-14,76 L-15,71 L-15,67 L-16,49 L-15,44 L-15,40 L-14,33 L-13,28 L-11,28 L-9,13 L-8,9 L-8,11 L-5,10 L-4,8 L-2,8 L-3,4 L1,3 Z " fill="#2E4A6B" transform="translate(725,1512)"/>
<path d="M0,0 L33,0 L43,1 L43,2 L4,3 L3,95 L1,92 L1,59 L0,56 L0,46 L1,43 L0,30 L1,23 L0,20 L1,15 L0,9 Z " fill="#1F4164" transform="translate(244,1440)"/>
<path d="M0,0 L4,1 L6,0 L14,2 L19,3 L27,5 L26,9 L13,5 L-5,5 L-18,10 L-26,16 L-33,26 L-36,33 L-40,32 L-39,27 L-36,28 L-38,24 L-36,24 L-36,21 L-34,21 L-33,16 L-30,13 L-26,13 L-25,9 L-21,8 L-19,4 L-15,4 L-15,6 L-11,3 L-5,2 Z " fill="#2A4969" transform="translate(1609,1501)"/>
<path d="M0,0 L2,1 L3,5 L4,8 L6,7 L8,6 L9,10 L12,11 L11,14 L16,15 L16,17 L19,17 L19,19 L24,17 L25,9 L28,10 L31,8 L36,9 L38,8 L36,14 L34,14 L34,16 L31,19 L29,19 L27,23 L24,27 L22,27 L17,22 L4,10 L-1,5 Z " fill="#274A6E" transform="translate(913,839)"/>
<path d="M0,0 L2,3 L1,34 L3,34 L3,49 L4,51 L3,58 L6,59 L4,61 L3,77 L3,93 L1,93 L1,115 L0,115 Z " fill="#D9E7F5" transform="translate(1479,1398)"/>
<path d="M0,0 L83,0 L93,2 L97,4 L95,5 L88,4 L87,7 L84,6 L81,3 L63,3 L56,4 L47,2 L0,2 Z M52,3 Z " fill="#254667" transform="translate(1129,1401)"/>
<path d="M0,0 L2,4 L3,5 L3,11 L2,12 L1,26 L3,27 L4,33 L3,37 L1,42 L3,43 L3,62 L1,62 L2,67 L4,71 L4,75 L2,75 L2,77 L4,78 L3,90 L-3,92 L-5,90 L0,90 Z " fill="#DEECF5" transform="translate(1479,1582)"/>
<path d="M0,0 L1,0 L1,18 L-2,42 L-4,45 L-4,28 L-7,28 L-7,24 L-10,25 L-10,27 L-13,28 L-15,31 L-17,31 L-16,34 L-20,35 L-20,32 L-18,32 L-18,29 L-22,29 L-22,26 L-18,24 L-19,28 L-17,28 L-14,20 L-11,20 L-9,20 L-8,16 L-9,15 L-8,12 L-3,13 L-3,15 L-5,17 L-7,19 L-3,21 L-3,20 L-4,16 L-1,17 L-1,7 Z M-18,22 Z M-16,32 Z " fill="#194878" transform="translate(1262,496)"/>
<path d="M0,0 L2,4 L7,4 L9,3 L7,7 L-7,19 L-11,22 L-13,22 L-13,24 L-25,33 L-26,31 L-24,31 L-24,29 L-15,22 L-15,18 L-12,18 L-11,16 L-9,16 L-11,14 L-11,7 L-9,7 L-8,4 L-4,4 L0,4 Z M-12,14 Z " fill="#22486E" transform="translate(712,766)"/>
<path d="M0,0 L1,0 L2,8 L3,70 L2,75 L1,140 L0,140 Z " fill="#203E60" transform="translate(1094,1486)"/>
<path d="M0,0 L35,0 L35,1 L21,2 L17,3 L12,2 L3,2 L3,32 L1,32 L1,96 L0,96 Z " fill="#CBD9E6" transform="translate(1143,1575)"/>
<path d="M0,0 L8,0 L5,2 L3,3 L2,5 L-2,4 L-10,6 L-7,7 L-6,13 L-7,15 L-5,16 L-7,19 L-10,17 L-13,18 L-13,16 L-15,16 L-15,18 L-19,18 L-21,18 L-22,15 L-21,12 L-19,12 L-19,15 L-18,12 L-16,11 L-21,10 L-19,8 L-25,9 L-25,7 L-7,2 Z M-7,6 Z " fill="#1A4A7A" transform="translate(1122,413)"/>
<path d="M0,0 L1,0 L2,6 L2,74 L1,80 L-2,81 L-1,71 L-3,71 L-1,62 L-1,1 Z " fill="#254666" transform="translate(1141,1450)"/>
<path d="M0,0 L68,0 L71,1 L71,3 L0,3 L0,9 L-2,5 L-2,1 Z " fill="#3A5977" transform="translate(1142,1440)"/>
<path d="M0,0 L2,2 L2,11 L2,15 L1,20 L2,22 L2,37 L1,41 L1,53 L2,54 L2,79 L-1,79 L-1,1 Z " fill="#29496B" transform="translate(1333,1591)"/>
<path d="M0,0 Z M-9,0 L2,2 L5,2 L5,4 L7,5 L6,10 L6,19 L5,20 L4,40 L6,40 L6,50 L7,54 L6,60 L6,63 L4,63 L3,65 L3,4 L-35,4 L-35,3 L-9,2 Z " fill="#DDE9F3" transform="translate(622,1465)"/>
<path d="M0,0 L5,5 L14,21 L20,37 L23,52 L23,58 L22,58 L22,53 L20,53 L18,55 L18,51 L16,51 L15,53 L15,45 L18,46 L16,41 L16,29 L14,29 L12,26 L12,22 L10,22 L9,17 L7,17 L0,3 Z " fill="#34506E" transform="translate(1687,1498)"/>
<path d="M0,0 L1,2 L-3,10 L-5,10 L-5,12 L-13,19 L-20,29 L-22,29 L-22,31 L-27,33 L-29,37 L-33,37 L-34,33 L-26,26 L-17,17 L-10,11 L-9,9 L-7,9 L-5,5 Z " fill="#2D5073" transform="translate(766,870)"/>
<path d="M0,0 L3,3 L6,12 L6,24 L3,33 L-5,42 L-14,46 L-17,45 L-19,44 L-18,41 L-18,43 L-15,43 L-15,41 L-11,40 L-8,36 L-2,35 L-1,32 L1,32 L1,29 L3,29 L2,23 L4,23 L2,11 L-1,5 L-4,4 L-4,2 Z " fill="#335172" transform="translate(1380,1396)"/>
<path d="M0,0 L1,2 L3,2 L4,0 L4,2 L6,2 L7,0 L7,2 L21,1 L35,1 L40,0 L41,1 L47,1 L52,0 L53,2 L63,2 L64,4 L-20,4 L-20,3 L0,3 Z " fill="#27466A" transform="translate(948,1581)"/>
<path d="M0,0 L4,4 L2,9 L-3,10 L-5,18 L-6,20 L-11,22 L-12,28 L-14,30 L-17,29 L-17,32 L-19,32 L-22,35 L-23,32 L-22,30 L-20,30 L-18,25 L-9,13 L-4,5 L-2,5 Z " fill="#274A6E" transform="translate(685,686)"/>
<path d="M0,0 L7,0 L5,2 L-2,3 L-2,5 L5,4 L4,9 L-1,6 L0,9 L-9,14 L-11,12 L-11,9 L-15,9 L-15,7 L-26,10 L-31,10 L-29,8 L-26,7 L-19,7 L-19,5 L-12,3 Z M5,5 Z " fill="#1C4470" transform="translate(1244,382)"/>
<path d="M0,0 L2,0 L0,5 L-3,9 L-8,25 L-10,37 L-11,82 L-12,82 L-13,71 L-13,57 L-14,54 L-13,44 L-13,36 L-12,23 L-10,23 L-8,13 L-7,11 L-9,11 L-9,5 L-4,5 L-2,1 Z " fill="#2E4C6C" transform="translate(492,1524)"/>
<path d="M0,0 L46,0 L46,19 L44,16 L43,7 L44,3 L36,4 L23,4 L17,3 L4,4 L2,6 L2,2 Z " fill="#385572" transform="translate(433,1469)"/>
<path d="M0,0 L6,2 L16,8 L27,19 L35,33 L38,42 L34,41 L33,36 L28,25 L28,23 L26,23 L24,28 L23,28 L22,19 L15,15 L14,11 L10,10 L5,5 L0,2 Z " fill="#2E4B6C" transform="translate(801,1475)"/>
<path d="M0,0 L57,0 L67,2 L69,4 L68,6 L66,6 L66,4 L61,4 L60,7 L59,4 L54,2 L43,2 L42,3 L29,3 L29,5 L25,6 L24,3 L21,3 L20,6 L18,3 L14,2 L4,2 L1,3 Z " fill="#E5F2F8" transform="translate(255,1443)"/>
<path d="M0,0 L2,1 L1,3 L-1,3 L0,7 L-4,13 L-4,18 L-6,18 L-7,22 L-11,25 L-11,22 L-12,20 L-17,25 L-22,29 L-20,20 L-15,15 L-11,15 L-9,11 L-4,3 L0,2 Z " fill="#33597C" transform="translate(1197,745)"/>
<path d="M0,0 L22,0 L38,3 L50,8 L60,13 L58,15 L54,13 L51,12 L51,10 L46,10 L45,7 L38,6 L26,5 L14,5 L11,5 L9,3 L-2,2 Z " fill="#2C4A6A" transform="translate(953,1465)"/>
<path d="M0,0 L7,6 L8,9 L12,11 L18,18 L21,20 L21,22 L15,22 L11,17 L8,16 L5,17 L4,15 L0,15 L-1,11 L1,7 L-1,6 L-2,1 Z " fill="#2A5075" transform="translate(1492,518)"/>
<path d="M0,0 L2,1 L2,4 L4,5 L3,8 L7,7 L7,11 L6,18 L8,18 L9,16 L12,16 L13,23 L12,30 L14,32 L14,38 L16,38 L15,41 L15,39 L12,38 L4,21 L0,5 Z " fill="#27496D" transform="translate(1519,1593)"/>
<path d="M0,0 L2,0 L3,6 L3,28 L4,42 L6,42 L7,47 L9,49 L10,56 L8,56 L8,62 L6,60 L2,44 L0,34 Z " fill="#324E6D" transform="translate(869,1555)"/>
<path d="M0,0 L1,0 L1,23 L-2,44 L-4,52 L-5,52 L-5,44 L-10,43 L-9,39 L-6,38 L-6,30 L-5,28 L-3,28 L-4,24 L-3,13 L0,13 Z " fill="#355374" transform="translate(1710,1559)"/>
<path d="M0,0 L2,0 L3,7 L2,8 L2,53 L3,56 L2,72 L2,79 L4,80 L2,82 L1,84 L3,85 L0,85 Z " fill="#D9E7F2" transform="translate(248,1448)"/>
<path d="M0,0 L2,0 L2,54 L-47,54 L-47,53 L-35,52 L0,52 Z " fill="#1E4060" transform="translate(1379,1617)"/>
<path d="M0,0 L1,0 L1,48 L-19,48 L-19,47 L-6,45 L-3,44 L-2,39 L-2,1 Z " fill="#D2E1ED" transform="translate(1758,1421)"/>
<path d="M0,0 L6,0 L6,57 L5,57 L4,25 L2,24 L2,8 L3,4 L1,4 L1,7 L-1,7 L-1,5 L-3,5 L-3,7 L-5,7 L-6,4 L-8,2 Z " fill="#476381" transform="translate(1802,1412)"/>
<path d="M0,0 L4,1 L4,5 L2,5 L0,9 L-6,17 L-8,17 L-10,21 L-12,24 L-14,24 L-14,26 L-16,26 L-18,31 L-20,31 L-22,35 L-30,44 L-30,41 L-29,39 L-27,39 L-27,36 L-25,36 L-24,32 L-21,32 L-19,27 L-17,27 L-15,19 L-11,18 L-11,15 L-9,15 L-7,10 L-6,8 L-4,8 L-4,6 L-2,6 Z " fill="#26476A" transform="translate(1009,772)"/>
<path d="M0,0 L5,0 L-1,8 L-3,8 L-3,10 L-7,11 L-9,15 L-14,20 L-16,25 L-18,25 L-19,27 L-21,27 L-21,29 L-24,31 L-25,34 L-29,35 L-29,33 L-27,33 L-28,29 L-26,29 L-24,25 L-13,14 L-6,6 L-3,5 L-1,1 Z " fill="#325274" transform="translate(1344,591)"/>
<path d="M0,0 L66,0 L66,1 L46,2 L17,2 L16,4 L15,3 L8,3 L8,5 L3,7 L2,19 L0,20 Z " fill="#D6E3EE" transform="translate(248,1575)"/>
<path d="M0,0 L3,1 L0,6 L-4,7 L-4,9 L-2,9 L-2,11 L0,12 L-3,15 L-4,13 L-6,15 L-10,21 L-12,23 L-15,23 L-15,25 L-17,25 L-18,24 L-20,27 L-25,29 L-23,25 L-16,17 L-11,12 L-2,3 Z " fill="#21476C" transform="translate(1103,844)"/>
<path d="M0,0 L6,2 L7,0 L8,2 L7,5 L11,6 L10,8 L10,11 L18,9 L20,14 L20,22 L22,22 L29,30 L30,33 L32,33 L32,35 L28,33 L12,16 L5,8 L0,2 Z M8,0 Z M20,12 Z " fill="#214469" transform="translate(675,977)"/>
<path d="M0,0 Z M6,-1 L8,0 L6,4 L7,6 L5,6 L4,11 L2,11 L2,13 L0,13 L0,15 L-3,16 L-4,19 L-8,19 L-10,11 L-8,7 L-6,7 L-5,2 L-2,2 L1,3 L0,6 L-2,6 L-2,8 L-4,8 L-4,11 L-2,11 L-1,9 L-1,12 L1,12 L2,8 L0,9 L1,5 L3,5 L4,1 L6,1 Z M-13,8 L-10,12 L-11,14 L-13,14 Z M-15,14 L-13,15 Z " fill="#2E567D" transform="translate(1159,592)"/>
<path d="M0,0 L2,0 L3,2 L8,2 L7,7 L4,8 L4,10 L0,11 L0,13 L-2,13 L-2,15 L-6,18 L-8,18 L-8,20 L-16,26 L-14,21 L-4,7 Z " fill="#2A4B6D" transform="translate(499,943)"/>
<path d="M0,0 L2,0 L2,2 L4,2 L4,4 L8,6 L18,16 L18,18 L20,18 L20,21 L18,21 L18,23 L15,23 L15,21 L13,20 L12,17 L9,16 L10,15 L9,13 L11,12 L7,11 L6,13 L4,11 L-3,8 L-4,5 L-2,2 L0,2 Z " fill="#294F71" transform="translate(1452,478)"/>
<path d="M0,0 L21,0 L21,48 L15,48 L19,47 L17,37 L18,30 L18,20 L19,7 L17,7 L18,4 L17,2 L0,1 Z " fill="#39536F" transform="translate(522,1465)"/>
<path d="M0,0 L3,1 L-4,9 L-5,13 L-10,17 L-12,16 L-12,18 L-14,18 L-16,22 L-24,30 L-25,27 L-26,29 L-28,29 L-28,27 L-30,27 L-29,25 L-23,26 L-20,23 L-20,21 L-22,23 L-27,20 L-27,18 L-29,18 L-30,20 L-30,17 L-28,17 L-28,15 L-26,15 L-25,13 L-23,15 L-23,17 L-22,13 L-20,13 L-20,17 L-18,17 L-17,20 L-15,17 L-13,17 L-13,15 L-11,15 L-11,12 L-7,11 L-5,7 L-3,4 L-1,4 Z " fill="#254E79" transform="translate(1014,1169)"/>
<path d="M0,0 L0,3 L-5,9 L-9,13 L-11,13 L-11,15 L-13,15 L-13,17 L-15,17 L-17,21 L-31,35 L-31,32 L-26,27 L-22,22 L-21,19 L-19,19 L-17,11 L-13,7 L-10,7 L-10,5 L-5,4 L-5,2 Z " fill="#26466B" transform="translate(1240,937)"/>
<path d="M0,0 L6,0 L4,2 L-2,4 L2,4 L2,6 L6,8 L4,11 L1,12 L1,14 L-3,16 L-2,10 L-5,10 L-5,8 L-10,9 L-12,8 L-12,10 L-14,10 L-14,8 L-19,6 L-15,4 Z M-5,7 Z " fill="#184879" transform="translate(1155,405)"/>
<path d="M0,0 L14,0 L14,37 L2,37 L6,35 L9,33 L12,33 L11,27 L12,25 L10,24 L12,24 L11,16 L10,14 L11,7 L10,5 L0,1 Z " fill="#254768" transform="translate(1835,1470)"/>
<path d="M0,0 L1,3 L-3,5 L-5,9 L-13,18 L-15,18 L-17,22 L-21,24 L-23,28 L-26,29 L-27,23 L-23,22 L-19,16 L-18,13 L-13,12 L-12,10 L-9,9 L-9,6 L-4,4 L-3,1 Z " fill="#264A6C" transform="translate(1368,803)"/>
<path d="M0,0 L2,4 L3,16 L-44,16 L-43,3 L-41,7 L-42,10 L-40,10 L-41,13 L-17,13 L0,14 Z " fill="#274362" transform="translate(840,1526)"/>
<path d="M0,0 L30,0 L30,1 L2,1 L2,29 L3,34 L10,36 L11,34 L11,36 L23,37 L23,38 L0,38 Z " fill="#335170" transform="translate(1728,1469)"/>
<path d="M0,0 L2,0 L2,50 L0,48 L1,40 L-2,41 L-2,23 L0,21 L-2,20 L-1,19 L-2,17 L0,17 L0,6 L-2,6 L-2,2 L0,2 Z " fill="#E2EBF3" transform="translate(1091,1401)"/>
<path d="M0,0 L1,0 L1,16 L-3,41 L-5,54 L-6,54 L-7,48 L-8,58 L-9,59 L-9,66 L-11,64 L-10,62 L-15,61 L-12,56 L-10,56 L-8,40 L-5,35 L-3,28 Z " fill="#577694" transform="translate(1269,455)"/>
<path d="M0,0 L6,1 L20,8 L32,17 L29,20 L26,20 L25,16 L19,14 L19,12 L17,12 L17,14 L14,15 L14,10 L7,6 L1,3 Z " fill="#2B4C6F" transform="translate(1647,1471)"/>
<path d="M0,0 L2,0 L2,2 L4,2 L4,4 L6,4 L11,9 L14,9 L16,9 L16,7 L18,7 L19,4 L20,6 L19,11 L24,11 L28,8 L26,12 L18,21 L16,20 L16,18 L14,18 L5,7 L0,2 Z " fill="#20436A" transform="translate(915,1241)"/>
<path d="M0,0 L1,0 L1,13 L-4,61 L-5,63 L-7,63 L-6,57 L-8,57 L-8,55 L-5,55 L-5,45 L-2,16 L-4,16 L-4,11 L-6,11 L-7,8 L-3,6 L-2,4 L-2,14 Z " fill="#193C60" transform="translate(1255,560)"/>
<path d="M0,0 L2,0 L3,11 L-2,12 L-2,14 L-6,15 L-6,17 L-11,18 L-12,13 L-6,4 L-2,5 Z " fill="#274E76" transform="translate(513,928)"/>
<path d="M0,0 L3,1 L1,5 L-10,12 L-18,16 L-25,19 L-28,19 L-27,16 L-24,15 L-21,12 L-16,12 L-17,9 L-12,8 L-12,5 L-5,5 L-5,1 Z " fill="#2E4F72" transform="translate(815,1653)"/>
<path d="M0,0 L1,2 L3,2 L4,6 L3,8 L1,8 L0,13 L-2,16 L-4,16 L-4,19 L-6,19 L-8,25 L-11,29 L-13,29 L-14,33 L-23,33 L-18,29 L-11,23 L-5,13 Z " fill="#315071" transform="translate(1657,1598)"/>
<path d="M0,0 L4,2 L12,11 L12,15 L9,15 L9,13 L7,13 L7,10 L5,10 L5,8 L2,7 L-1,5 L-3,9 L-7,14 L-10,14 L-12,18 L-14,17 L-12,15 L-14,13 L-6,6 L-3,5 L-1,1 Z " fill="#2E5072" transform="translate(781,856)"/>
<path d="M0,0 L15,0 L24,5 L26,10 L24,9 L24,7 L22,7 L21,9 L19,6 L15,5 L15,7 L12,8 L10,7 L10,3 L3,3 L-2,6 L-6,5 L-6,3 L-8,2 Z " fill="#2F4E6F" transform="translate(594,1386)"/>
<path d="M0,0 L2,2 L0,6 L-2,10 L-4,10 L-4,12 L-6,12 L-6,14 L-8,14 L-9,19 L-12,19 L-14,23 L-18,27 L-20,26 L-20,24 L-18,24 L-16,20 L-15,14 L-11,11 L-9,7 L-2,5 L-2,2 L0,2 Z " fill="#294D72" transform="translate(1083,687)"/>
<path d="M0,0 L1,0 L2,28 L3,32 L2,34 L3,38 L8,40 L7,43 L43,43 L43,44 L0,44 Z " fill="#1B3D61" transform="translate(1094,1627)"/>
<path d="M0,0 L2,1 L3,5 L4,8 L3,10 L5,11 L4,12 L6,18 L6,33 L5,37 L6,39 L4,39 L4,41 L6,42 L4,42 L4,45 L2,45 L1,39 L2,35 L2,17 L-2,4 L-2,2 L0,2 Z " fill="#28486B" transform="translate(345,1461)"/>
<path d="M0,0 L2,0 L1,4 L-3,9 L-5,9 L-5,11 L-7,11 L-9,15 L-21,27 L-23,25 L-22,21 L-22,24 L-20,24 L-20,17 L-19,19 L-17,19 L-17,17 L-15,17 L-15,15 L-13,15 L-13,13 L-11,12 L-9,8 L-7,8 L-6,4 L-2,3 L-2,1 Z " fill="#2B4C6F" transform="translate(1306,866)"/>
<path d="M0,0 L1,0 L1,51 L-1,50 L-2,39 L-3,35 L-3,23 L0,13 L-2,12 L-3,6 L0,5 Z " fill="#1E446A" transform="translate(1477,1619)"/>
<path d="M0,0 L1,3 L4,4 L-1,6 L-4,16 L-6,21 L-9,31 L-14,34 L-13,26 L-5,8 Z " fill="#2E4D70" transform="translate(1535,1504)"/>
<path d="M0,0 L1,2 L0,4 L-2,4 L-1,7 L-4,10 L-5,13 L-8,15 L-9,18 L-11,18 L-11,20 L-13,20 L-14,23 L-19,26 L-27,36 L-31,37 L-30,34 L-28,34 L-28,32 L-26,32 L-26,30 L-24,30 L-22,25 L-16,18 L-14,18 L-14,16 L-12,16 L-10,11 L-8,11 L-6,7 L-3,3 L-1,3 Z " fill="#C0D1DD" transform="translate(1105,667)"/>
<path d="M0,0 L2,0 L0,6 L-2,7 L-3,9 L-4,8 L-6,13 L-8,13 L-9,15 L-11,14 L-12,18 L-14,18 L-13,22 L-19,24 L-20,27 L-25,30 L-28,33 L-30,32 L-29,30 L-27,30 L-27,28 L-23,24 L-21,24 L-21,22 L-19,22 L-18,19 L-16,19 L-15,16 L-13,16 L-11,12 L-9,9 L-7,9 L-7,7 L-5,7 L-5,5 L-3,5 L-1,1 Z " fill="#C3D3E0" transform="translate(1540,625)"/>
<path d="M0,0 L1,0 L1,79 L0,79 L-1,73 L-1,29 L-3,27 L-1,27 L-1,16 L-3,14 L-1,14 L-1,12 L-3,11 L-1,11 L-1,9 L-3,8 L-1,8 L-1,1 Z " fill="#D2DDE9" transform="translate(1092,1452)"/>
<path d="M0,0 L19,1 L26,3 L30,4 L29,8 L18,4 L0,4 L-7,6 L-15,10 L-18,10 L-17,7 L-11,5 L-10,2 L-1,1 Z " fill="#314B69" transform="translate(749,1502)"/>
<path d="M0,0 L6,0 L2,4 L-14,12 L-30,17 L-38,17 L-38,14 L-30,14 L-19,11 L-16,8 L-7,7 L-7,4 L-5,4 L-4,2 L-1,2 Z " fill="#2D4B6A" transform="translate(363,1556)"/>
<path d="M0,0 L2,1 L0,8 L2,9 L1,13 L0,20 L2,20 L0,26 L2,27 L1,31 L3,31 L1,36 L2,41 L-2,42 L-2,2 L0,2 Z " fill="#E3EEF7" transform="translate(1481,1539)"/>
<path d="M0,0 L2,4 L2,6 L-2,8 L-6,10 L-6,12 L-10,13 L-10,16 L-12,16 L-13,19 L-18,21 L-18,19 L-20,18 L-10,7 Z " fill="#305174" transform="translate(705,1479)"/>
<path d="M0,0 L4,2 L2,4 L0,5 L0,7 L-3,7 L-3,10 L-5,10 L-4,16 L-1,15 L0,13 L4,14 L3,16 L1,16 L1,18 L-1,18 L-1,20 L-3,20 L-3,22 L-5,22 L-5,24 L-7,24 L-7,26 L-9,26 L-11,30 L-14,32 L-14,29 L-12,29 L-12,26 L-14,25 L-8,25 L-8,23 L-6,23 L-6,21 L-4,21 L-7,18 L-9,12 L-10,14 L-10,9 L-4,6 L-4,4 L-2,4 L-2,2 L0,2 Z " fill="#224D7B" transform="translate(967,1205)"/>
<path d="M0,0 L6,0 L4,4 L-4,12 L-6,15 L-8,15 L-10,19 L-15,23 L-15,20 L-13,20 L-13,18 L-11,18 L-11,16 L-9,16 L-9,13 L-6,10 L-8,10 L-8,12 L-10,12 L-11,9 L-9,6 L-6,6 L-6,4 L-1,1 Z " fill="#22456D" transform="translate(1191,983)"/>
<path d="M0,0 L43,0 L43,2 L36,3 L34,2 L33,4 L33,2 L24,3 L19,6 L19,4 L17,4 L17,2 L7,4 L5,5 L5,3 L0,2 Z " fill="#2A4A6B" transform="translate(278,1401)"/>
<path d="M0,0 L2,1 L2,6 L-2,7 L-1,11 L-4,10 L-12,20 L-13,23 L-19,24 L-19,20 L-14,18 L-12,13 L-5,5 Z " fill="#294D72" transform="translate(945,672)"/>
<path d="M0,0 L4,0 L4,2 L10,0 L14,1 L2,5 L-5,7 L-8,9 L-7,13 L-14,16 L-17,17 L-16,8 L-14,8 L-14,6 L0,3 L-2,1 Z " fill="#27527F" transform="translate(1093,420)"/>
<path d="M0,0 L4,3 L2,7 L-4,18 L-6,18 L-7,13 L-7,1 L-1,3 Z " fill="#DBE8F1" transform="translate(487,1479)"/>
<path d="M0,0 L2,0 L2,2 L4,3 L3,13 L3,42 L2,48 L0,46 Z " fill="#2B4969" transform="translate(1759,1421)"/>
<path d="M0,0 L1,2 L3,3 L-9,15 L-23,24 L-23,21 L-23,18 L-18,17 L-18,15 L-14,14 L-14,12 L-10,12 L-9,7 L-4,8 L-4,6 L-2,6 Z " fill="#365373" transform="translate(1685,1641)"/>
<path d="M0,0 L1,0 L1,20 L-2,38 L-7,51 L-10,55 L-11,52 L-9,52 L-6,37 L-4,37 L-5,32 L-4,26 L-2,26 L-2,16 L0,16 Z " fill="#435C76" transform="translate(1295,1478)"/>
<path d="M0,0 L3,0 L3,44 L0,45 L0,15 L-1,12 L0,8 L-2,7 Z " fill="#29496A" transform="translate(1140,1575)"/>
<path d="M0,0 L4,0 L3,4 L5,4 L9,14 L11,17 L13,17 L14,23 L16,30 L17,38 L15,40 L12,28 L5,12 L-1,1 Z " fill="#DCE8F0" transform="translate(1692,1501)"/>
<path d="M0,0 L4,0 L9,5 L12,6 L15,13 L20,18 L20,20 L23,20 L24,23 L28,25 L28,27 L30,28 L31,26 L32,28 L32,34 L25,28 L16,18 L9,10 L2,2 Z " fill="#C9D9E4" transform="translate(781,855)"/>
<path d="M0,0 L7,6 L9,7 L9,9 L13,11 L23,19 L23,20 L15,19 L15,17 L12,18 L11,16 L5,11 L5,9 L2,8 L0,4 L-2,2 L0,2 Z " fill="#2F4F70" transform="translate(1022,1613)"/>
<path d="M0,0 L2,2 L1,5 L-2,5 L0,8 L2,8 L1,14 L-2,13 L-2,15 L-5,15 L-7,25 L-9,25 L-9,31 L-12,31 L-11,24 L-5,8 Z " fill="#324F71" transform="translate(884,1508)"/>
<path d="M0,0 L2,2 L2,34 L-2,35 L-2,24 L-1,20 L-1,10 L-2,7 Z " fill="#25486B" transform="translate(1805,1435)"/>
<path d="M0,0 L3,4 L9,20 L11,27 L11,32 L9,32 L6,20 L2,19 L2,12 L0,10 L-1,4 Z " fill="#33506F" transform="translate(387,1441)"/>
<path d="M0,0 L1,0 L1,9 L-4,55 L-6,57 L-6,47 L-1,2 Z " fill="#1A3B5E" transform="translate(1274,400)"/>
<path d="M0,0 L2,0 L2,11 L-38,11 L-38,10 L-21,9 L-19,9 L-19,6 L-13,8 L-8,7 L-7,9 L-1,9 L-2,3 Z " fill="#2B4869" transform="translate(1051,1574)"/>
<path d="M0,0 L3,1 L2,7 L3,13 L2,21 L4,22 L2,22 L2,53 L0,54 Z " fill="#E8F2F8" transform="translate(1382,1470)"/>
<path d="M0,0 L1,0 L1,18 L-2,42 L-4,45 L-4,28 L-7,28 L-6,21 L-3,21 L-3,20 L-4,16 L-1,17 L-1,7 Z " fill="#1A3E65" transform="translate(1262,496)"/>
<path d="M0,0 L2,1 L-1,10 L-9,22 L-17,31 L-18,31 L-18,25 L-14,24 L-11,17 L-9,17 L-7,12 L-4,11 L-4,5 L-2,5 Z " fill="#2E4B6A" transform="translate(837,1624)"/>
<path d="M0,0 L1,2 L3,2 L4,7 L4,23 L0,22 L-1,19 L1,18 L0,13 L-2,16 L-4,12 L-4,7 L-1,4 Z " fill="#21456B" transform="translate(1706,1549)"/>
<path d="M0,0 L1,3 L-2,8 L-2,10 L-7,10 L-7,12 L-9,13 L-10,18 L-15,21 L-20,26 L-23,26 L-24,29 L-27,28 L-17,18 L-12,13 L-3,3 Z " fill="#CBD8E4" transform="translate(1363,811)"/>
<path d="M0,0 L4,1 L6,0 L5,4 L9,4 L11,4 L11,8 L13,9 L13,11 L15,11 L15,13 L17,13 L22,18 L25,19 L27,23 L31,25 L31,27 L33,27 L33,29 L35,29 L35,32 L31,30 L25,25 L25,23 L21,21 L12,12 L4,5 L0,1 Z " fill="#244261" transform="translate(852,788)"/>
<path d="M0,0 L4,2 L4,6 L6,6 L5,8 L2,9 L1,13 L-3,15 L-3,12 L-8,13 L-8,15 L-10,15 L-8,11 L-4,4 L-2,4 L-2,2 L0,2 Z " fill="#2B5074" transform="translate(777,559)"/>
<path d="M0,0 L2,0 L0,10 L-2,26 L-2,61 L-4,59 L-5,18 L-4,14 L-1,2 Z M-5,14 Z " fill="#C8D9E7" transform="translate(667,1529)"/>
<path d="M0,0 L4,0 L4,2 L2,2 L4,10 L3,13 L2,17 L-3,12 L-7,11 L-7,3 L-2,1 L0,2 Z M0,11 L1,13 Z M-5,12 L-3,13 Z " fill="#1A4875" transform="translate(915,686)"/>
<path d="M0,0 L4,2 L-9,15 L-18,21 L-19,17 L-13,13 L-9,13 L-10,8 L-7,8 L-5,1 L-2,1 Z " fill="#2E4F71" transform="translate(1039,1641)"/>
<path d="M0,0 L15,0 L19,2 L19,5 L17,5 L17,3 L10,3 L7,4 L0,3 L-1,6 L-9,6 L-9,9 L-11,9 L-12,6 L-4,1 Z " fill="#324F70" transform="translate(1348,1386)"/>
<path d="M0,0 L3,4 L-4,15 L-15,26 L-20,28 L-21,25 L-16,24 L-16,22 L-12,18 L-9,17 L-9,12 L-5,10 L-5,8 L-2,7 Z " fill="#344F6D" transform="translate(1282,1530)"/>
<path d="M0,0 L3,1 L1,1 L2,3 L4,3 L3,6 L-8,15 L-14,20 L-16,20 L-14,16 L-11,14 L-12,10 L-10,10 L-10,8 L-6,7 L-5,4 L-2,4 L-2,6 L0,6 L-1,3 Z " fill="#214467" transform="translate(580,880)"/>
<path d="M0,0 L1,3 L-1,7 L-3,7 L-3,10 L-13,17 L-19,25 L-23,29 L-27,28 L-14,15 L-7,7 Z " fill="#C3D3DF" transform="translate(983,1208)"/>
<path d="M0,0 L40,1 L42,3 L6,3 L-11,7 L-17,9 L-16,6 L-8,3 Z " fill="#C3D4E2" transform="translate(1591,1463)"/>
<path d="M0,0 L2,0 L2,2 L4,2 L4,4 L8,3 L11,0 L14,1 L13,5 L11,5 L13,8 L15,9 L13,12 L20,20 L18,21 L13,16 L6,9 L0,2 Z " fill="#20446A" transform="translate(713,1019)"/>
<path d="M0,0 L1,0 L1,14 L0,20 L-1,20 L-2,11 L-3,15 L-3,19 L-6,20 L-8,15 L-10,16 L-12,14 L-12,11 L-8,8 L-7,11 L-7,8 L-2,4 L-1,6 Z " fill="#1B4572" transform="translate(1276,378)"/>
<path d="M0,0 L19,0 L28,2 L24,4 L18,4 L14,3 L10,4 L6,3 L5,5 L1,3 L-2,4 L-4,6 L-4,4 L-9,5 L-7,2 Z " fill="#E2EFF5" transform="translate(1190,1443)"/>
<path d="M0,0 L3,2 L1,7 L-1,7 L-2,11 L-7,16 L-9,16 L-10,9 L-9,6 L-5,5 L-5,3 L-3,3 L-3,1 Z " fill="#24486E" transform="translate(960,831)"/>
<path d="M0,0 L2,1 L2,5 L0,5 L1,8 L-2,13 L-4,16 L-6,15 L-6,13 L-11,19 L-14,18 L-14,16 L-12,16 L-10,12 L-6,7 L-4,7 L-2,3 Z " fill="#294E72" transform="translate(965,648)"/>
<path d="M0,0 L2,4 L0,10 L-2,10 L-2,15 L1,15 L2,18 L0,20 L-3,18 L-3,16 L-7,15 L-8,12 L-11,12 L-11,10 L-5,9 L-3,4 Z " fill="#2D547B" transform="translate(1220,577)"/>
<path d="M0,0 L5,0 L5,9 L4,15 L3,15 L2,7 L1,5 L-12,7 L-10,5 L-19,6 L-15,3 Z " fill="#496484" transform="translate(1274,374)"/>
<path d="M0,0 L3,1 L-2,10 L-3,12 L-3,27 L0,37 L-4,37 L-4,35 L-7,34 L-5,33 L-7,32 L-7,30 L-5,30 L-7,21 L-5,9 L-3,5 L-1,5 Z " fill="#D4E2EE" transform="translate(575,1394)"/>
<path d="M0,0 L2,0 L3,4 L2,30 L3,39 L5,43 L0,44 Z " fill="#2C4A68" transform="translate(576,1627)"/>
<path d="M0,0 L1,4 L9,5 L20,7 L20,9 L46,9 L46,10 L19,10 L-2,5 L-7,3 L-7,1 L0,2 Z " fill="#49617C" transform="translate(934,1666)"/>
<path d="M0,0 L18,0 L28,3 L32,6 L28,6 L28,8 L26,7 L27,5 L22,5 L21,7 L17,6 L17,4 L15,4 L15,6 L13,6 L11,1 L7,2 L0,1 Z " fill="#D6E3EB" transform="translate(1604,1505)"/>
<path d="M0,0 L2,1 L2,33 L0,33 L0,55 L-1,55 L-1,23 Z " fill="#E1EFF8" transform="translate(1480,1458)"/>
<path d="M0,0 L1,4 L0,6 L-2,6 L-2,14 L-5,19 L-6,26 L-4,28 L-5,34 L-7,30 L-8,28 L-8,14 L-2,2 Z " fill="#3A587A" transform="translate(1335,1393)"/>
<path d="M0,0 L2,0 L2,22 L-2,40 L-5,47 L-6,47 L-5,38 L-3,28 L-1,24 L0,16 L0,4 L-2,3 Z " fill="#2E4864" transform="translate(397,1481)"/>
<path d="M0,0 L7,0 L12,1 L13,1 L13,16 L12,21 L11,21 L11,4 L-23,4 L-23,3 L-2,3 L-2,1 Z " fill="#DFECF5" transform="translate(1839,1465)"/>
<path d="M0,0 L1,3 L-3,9 L-7,13 L-10,13 L-10,15 L-15,20 L-18,26 L-25,27 L-23,26 L-21,22 L-12,13 L-11,11 L-9,11 L-9,9 L-7,9 L-7,7 L-5,7 L-5,5 Z " fill="#CCDBE6" transform="translate(1446,724)"/>
<path d="M0,0 L22,0 L22,10 L19,21 L16,20 L18,20 L17,13 L18,7 L20,7 L20,4 L18,4 L18,1 L4,2 L2,3 L0,2 Z " fill="#2A4767" transform="translate(821,1602)"/>
<path d="M0,0 L2,1 L1,6 L-4,7 L-8,8 L-10,10 L-10,8 L-19,8 L-21,10 L-28,7 L-35,6 L-35,5 L0,5 Z " fill="#1E3F62" transform="translate(1005,1545)"/>
<path d="M0,0 L8,0 L5,2 L3,3 L2,5 L-2,4 L-11,6 L-11,9 L-15,11 L-20,11 L-21,9 L-22,9 L-25,9 L-25,7 L-7,2 Z " fill="#183D66" transform="translate(1122,413)"/>
<path d="M0,0 L3,0 L2,2 L0,4 L-5,4 L-5,8 L-11,13 L-13,13 L-13,15 L-16,16 L-18,21 L-21,21 L-19,16 L-13,8 L-4,2 Z " fill="#D7E3EC" transform="translate(509,1514)"/>
<path d="M0,0 L1,0 L1,28 L-2,24 L-1,15 L-3,13 L-3,18 L-5,18 L-5,5 L-1,5 Z M-4,7 Z " fill="#E2E9EF" transform="translate(197,1401)"/>
<path d="M0,0 L3,1 L3,5 L1,5 L0,10 L-4,9 L-4,7 L-6,7 L-8,11 L-15,18 L-17,17 L-18,15 L-13,10 L-6,4 L0,5 L-1,1 Z " fill="#2A4F75" transform="translate(1122,828)"/>
<path d="M0,0 L2,1 L1,2 L-5,2 L-5,4 L-18,6 L-24,8 L-39,11 L-42,13 L-54,15 L-53,13 L-48,11 L-42,11 L-42,9 L-32,7 L-8,2 Z " fill="#95AAC0" transform="translate(1230,385)"/>
<path d="M0,0 L40,0 L49,1 L49,4 L54,3 L54,6 L57,6 L57,8 L47,5 L33,2 L-3,2 Z " fill="#B8CBD9" transform="translate(740,1464)"/>
<path d="M0,0 L1,3 L-5,10 L-9,17 L-10,19 L-14,22 L-17,22 L-19,28 L-21,30 L-24,29 L-20,23 L-18,23 L-16,19 L-12,14 L-10,14 L-8,9 L-6,9 L-4,5 Z " fill="#C5D7E2" transform="translate(1069,709)"/>
<path d="M0,0 L4,1 L4,3 L8,4 L11,7 L11,9 L13,9 L13,7 L15,7 L16,13 L14,14 L19,15 L20,18 L15,16 L6,9 L0,3 Z " fill="#305072" transform="translate(1544,1645)"/>
<path d="M0,0 L1,0 L1,5 L-1,9 L-3,13 L-5,20 L-9,18 L-9,16 L-11,15 L-9,11 L-7,11 L-5,7 L-2,2 L0,2 Z " fill="#2C5174" transform="translate(754,591)"/>
<path d="M0,0 L3,0 L5,3 L6,11 L8,12 L9,19 L11,19 L12,25 L10,27 L4,14 L1,7 Z " fill="#314D6D" transform="translate(668,1606)"/>
<path d="M0,0 L1,3 L1,10 L3,12 L1,12 L2,15 L1,17 L3,18 L3,22 L1,22 L2,29 L1,37 L-1,37 L-1,1 Z " fill="#EBF3F7" transform="translate(1383,1559)"/>
<path d="M0,0 L2,1 L3,11 L3,22 L2,31 L-1,30 L-2,25 L0,15 L-2,9 L-2,6 Z M-2,30 Z " fill="#1A436D" transform="translate(1042,1551)"/>
<path d="M0,0 L47,0 L46,2 L24,2 L15,3 L0,1 Z " fill="#ECF7FC" transform="translate(1332,1672)"/>
<path d="M0,0 L1,4 L-3,6 L-5,11 L-7,11 L-7,13 L-10,14 L-11,16 L-17,18 L-17,21 L-24,22 L-25,20 L-14,13 L-4,4 Z " fill="#D6E3EB" transform="translate(1041,1644)"/>
<path d="M0,0 L2,0 L2,28 L3,33 L5,36 L4,38 L2,38 L1,43 L0,43 Z " fill="#D8E5F0" transform="translate(248,1596)"/>
<path d="M0,0 L5,1 L5,3 L-6,11 L-11,17 L-12,17 L-12,11 L-9,8 L-8,5 L-6,5 L-2,1 Z " fill="#2F4F71" transform="translate(940,1505)"/>
<path d="M0,0 L5,4 L13,18 L16,27 L12,26 L11,21 L6,10 L6,8 L4,8 L2,13 L1,13 Z " fill="#375371" transform="translate(823,1490)"/>
<path d="M0,0 L2,4 L0,7 L-1,8 L2,11 L1,19 L-1,18 L0,16 L-4,17 L-6,16 L-5,14 L-4,9 L-8,8 Z M2,6 L4,8 L1,9 Z " fill="#264F79" transform="translate(687,947)"/>
<path d="M0,0 L1,2 L-2,7 L-9,14 L-14,18 L-16,18 L-18,24 L-20,24 L-20,26 L-24,25 L-19,19 L-17,19 L-17,17 L-15,17 L-15,15 L-13,15 L-11,11 L-9,11 L-7,7 L-3,2 Z " fill="#C7D6E4" transform="translate(1244,935)"/>
<path d="M0,0 L1,3 L-4,5 L-6,9 L-12,16 L-17,16 L-19,20 L-27,25 L-29,24 L-22,18 L-20,18 L-20,16 L-12,10 Z " fill="#C2D3DE" transform="translate(719,772)"/>
<path d="M0,0 L2,1 L3,0 L5,1 L5,5 L1,8 L0,12 L-7,13 L-10,11 L-1,2 Z " fill="#274E74" transform="translate(1222,719)"/>
<path d="M0,0 L2,0 L2,2 L-9,5 L-7,7 L-7,9 L-11,8 L-12,11 L-17,13 L-19,11 L-19,8 L-17,7 L-18,5 L-17,3 Z " fill="#1B436F" transform="translate(1188,397)"/>
<path d="M0,0 L2,0 L2,27 L0,26 L-1,21 L-2,18 L-2,15 L-4,14 L-3,9 L-1,9 Z " fill="#22486D" transform="translate(622,1610)"/>
<path d="M0,0 L2,0 L1,3 L-5,5 L-6,7 L-10,7 L-17,10 L-23,9 L-24,13 L-27,11 L-34,10 L-34,9 L-21,7 L-5,2 Z " fill="#CBDAE5" transform="translate(354,1565)"/>
<path d="M0,0 L2,0 L0,4 L-5,8 L-8,10 L-10,10 L-10,12 L-12,12 L-12,14 L-14,14 L-14,16 L-16,16 L-16,18 L-19,18 L-17,13 L-10,6 L-3,1 Z " fill="#DDE8EF" transform="translate(946,1507)"/>
<path d="M0,0 L4,0 L4,2 L6,2 L6,4 L10,5 L11,8 L10,11 L14,13 L14,15 L18,17 L19,21 L14,18 L4,7 Z " fill="#344E6D" transform="translate(681,1636)"/>
<path d="M0,0 L34,0 L34,2 L31,3 L3,3 L1,2 L0,6 Z " fill="#234161" transform="translate(1094,1401)"/>
<path d="M0,0 L1,2 L5,2 L9,2 L12,6 L11,13 L13,13 L18,20 L15,20 L6,9 L0,3 Z " fill="#1F4166" transform="translate(834,1151)"/>
<path d="M0,0 L3,1 L6,4 L15,3 L14,10 L12,10 L17,14 L17,16 L19,16 L19,18 L21,19 L17,18 L0,2 Z " fill="#1C3E62" transform="translate(802,741)"/>
<path d="M0,0 L5,1 L0,6 L-11,18 L-14,23 L-16,21 L-15,19 L-13,19 L-12,15 L-11,13 L-9,13 L-9,11 L-7,11 L-6,8 L-4,8 L-4,1 Z " fill="#DCE8F1" transform="translate(695,1481)"/>
<path d="M0,0 L4,0 L4,2 L-1,5 L-24,5 L-24,3 L-28,4 L-28,2 L-5,1 Z M-21,5 Z " fill="#244566" transform="translate(984,1634)"/>
<path d="M0,0 L1,0 L0,54 L-1,54 L-2,43 L-2,29 L-3,26 L-2,16 L-2,8 Z " fill="#224166" transform="translate(481,1552)"/>
<path d="M0,0 L6,1 L6,3 L14,5 L16,9 L18,14 L16,17 L10,9 L-1,2 Z " fill="#2F4F6F" transform="translate(325,1445)"/>
<path d="M0,0 L2,0 L0,4 L-7,11 L-8,13 L-10,13 L-10,15 L-15,19 L-17,18 L-14,13 L-15,9 L-13,7 L-11,8 L-11,6 L-8,6 L-8,8 L-10,8 L-10,10 L-7,7 L-7,5 L-3,5 L-3,3 L-1,3 Z " fill="#21446A" transform="translate(1093,1090)"/>
<path d="M0,0 L2,0 L1,5 L-4,9 L-6,9 L-7,13 L-9,13 L-9,19 L-15,19 L-15,21 L-19,22 L-16,17 L-13,14 L-11,14 L-10,10 L-2,3 Z " fill="#C5D4E0" transform="translate(1323,852)"/>
<path d="M0,0 L1,3 L-2,6 L-4,6 L-6,10 L-8,11 L-6,6 L-7,7 L-9,7 L-10,11 L-12,11 L-12,14 L-9,12 L-11,16 L-12,18 L-17,17 L-17,14 L-15,14 L-15,12 L-13,12 L-13,8 L-10,8 L-9,4 L-5,3 L-5,1 L-3,2 L-4,4 L-2,4 Z " fill="#1C4268" transform="translate(1172,586)"/>
<path d="M0,0 L1,0 L1,39 L-1,39 L-2,27 L-1,21 L-3,20 L-2,19 L-1,5 Z " fill="#294867" transform="translate(1142,1620)"/>
<path d="M0,0 L2,0 L2,26 L3,33 L2,40 L0,40 Z " fill="#ECF4F8" transform="translate(1144,1611)"/>
<path d="M0,0 L2,2 L6,16 L6,22 L-8,22 L-7,20 L1,19 L4,19 L4,16 L2,16 L0,4 L-2,3 Z " fill="#D6E4EF" transform="translate(998,1527)"/>
<path d="M0,0 L2,0 L9,8 L18,17 L14,18 L13,20 L11,13 L7,13 L8,10 L6,9 L6,11 L2,12 L2,9 L5,9 L5,7 L3,7 L2,3 L-1,3 Z " fill="#365777" transform="translate(1535,562)"/>
<path d="M0,0 L9,0 L6,2 L-17,7 L-26,9 L-27,11 L-32,10 L-30,8 Z " fill="#1B3C61" transform="translate(1087,422)"/>
<path d="M0,0 L10,0 L18,1 L42,1 L40,3 L37,4 L19,4 L3,2 Z " fill="#3F5A76" transform="translate(731,1672)"/>
<path d="M0,0 L2,1 L2,6 L0,7 L0,11 L-7,10 L-10,13 L-14,14 L-15,11 L-6,5 Z " fill="#E3EDF2" transform="translate(375,1551)"/>
<path d="M0,0 L1,4 L1,8 L3,9 L1,9 L1,11 L3,11 L3,17 L1,19 L0,18 L-2,26 L-3,26 L-3,13 Z " fill="#D8E4ED" transform="translate(485,1542)"/>
<path d="M0,0 L2,0 L1,13 L1,40 L-1,41 L-1,1 Z " fill="#ECF5FB" transform="translate(1145,1447)"/>
<path d="M0,0 L3,2 L3,17 L-1,26 L-4,26 L-5,22 L-3,22 L-3,20 L-1,20 L0,5 Z " fill="#344E6D" transform="translate(626,1404)"/>
<path d="M0,0 L10,5 L13,6 L13,10 L4,7 L-11,3 L-7,1 Z " fill="#D5E2EB" transform="translate(338,1400)"/>
<path d="M0,0 L4,2 L5,5 L7,5 L7,7 L11,9 L12,13 L11,15 L5,15 L4,8 L0,8 L0,6 L0,5 L-1,3 L-2,1 Z " fill="#355677" transform="translate(1556,584)"/>
<path d="M0,0 L5,5 L14,22 L13,24 L10,21 L9,17 L7,17 L6,13 L3,12 L1,7 L-1,6 Z " fill="#385471" transform="translate(1030,1494)"/>
<path d="M0,0 L2,4 L-1,4 L-2,8 L-4,8 L-6,14 L-18,15 L-22,14 L-7,8 Z " fill="#D9E6EF" transform="translate(625,1429)"/>
<path d="M0,0 L2,0 L0,4 L1,6 L-4,11 L-7,14 L-9,14 L-11,19 L-12,17 L-14,17 L-14,19 L-16,19 L-16,16 L-13,16 L-13,14 L-11,14 L-11,12 L-9,12 L-9,8 L-5,8 L-5,6 L-3,6 L-3,2 L0,2 Z " fill="#2D4F75" transform="translate(1168,1009)"/>
<path d="M0,0 L4,1 L2,8 L-3,13 L-7,14 L-9,12 Z " fill="#294C71" transform="translate(556,866)"/>
<path d="M0,0 L2,0 L2,2 L4,2 L4,4 L1,4 L0,8 L-2,9 L-1,6 L-5,8 L-10,12 L-13,10 L-6,2 Z " fill="#2C5377" transform="translate(1163,785)"/>
<path d="M0,0 L1,2 L3,2 L4,0 L4,2 L14,0 L14,3 L10,5 L0,6 L-1,5 L-10,5 L-10,3 L0,2 Z " fill="#2C5279" transform="translate(771,1669)"/>
<path d="M0,0 L4,1 L2,3 L-7,5 L-25,5 L-20,1 L-12,2 L-5,1 Z " fill="#D1DFE9" transform="translate(986,1631)"/>
<path d="M0,0 L29,0 L39,2 L41,4 L40,6 L38,6 L38,4 L33,4 L32,7 L31,4 L26,2 L2,2 Z " fill="#D3E4EF" transform="translate(283,1443)"/>
<path d="M0,0 L1,3 L-1,6 L-3,6 L-3,8 L-5,8 L-5,13 L-8,14 L-8,17 L-14,19 L-16,21 L-19,20 L-7,8 Z " fill="#C3D3DF" transform="translate(955,1237)"/>
<path d="M0,0 L3,3 L8,4 L6,5 L4,9 L0,10 L-1,10 L-3,14 L-4,11 L-5,5 Z M0,4 L0,6 L2,6 L2,4 Z " fill="#274F77" transform="translate(1051,718)"/>
<path d="M0,0 L6,0 L7,5 L5,3 L2,7 L1,5 L-2,9 L-4,9 L-6,13 L-9,13 L-11,12 Z M5,5 Z " fill="#2B5175" transform="translate(999,609)"/>
<path d="M0,0 L1,4 L-1,22 L-2,24 L-3,50 L-4,50 L-4,19 Z " fill="#C5D3E1" transform="translate(717,1535)"/>
<path d="M0,0 L8,2 L2,9 L-1,10 L-4,10 L-4,4 L0,2 Z " fill="#274D75" transform="translate(1113,1062)"/>
<path d="M0,0 L2,0 L2,15 L1,19 L6,20 L7,23 L9,25 L7,29 L2,24 L0,20 Z " fill="#DBE7F0" transform="translate(1808,1601)"/>
<path d="M0,0 L4,1 L-1,5 L-5,11 L-7,11 L-9,16 L-12,20 L-13,17 L-12,14 L-10,14 L-8,5 L-4,3 L-2,4 L-3,1 Z " fill="#DEE8F0" transform="translate(896,1488)"/>
<path d="M0,0 L2,2 L1,5 L-4,10 L-4,12 L-8,14 L-10,17 L-12,17 L-12,15 L-14,14 Z " fill="#2F5072" transform="translate(963,991)"/>
<path d="M0,0 L5,0 L2,5 L-5,12 L-7,12 L-8,16 L-13,21 L-15,21 L-17,25 L-18,23 L-16,18 L-11,15 L-6,8 L-1,5 Z " fill="#B6C8D6" transform="translate(1146,794)"/>
<path d="M0,0 L6,1 L12,6 L12,8 L15,9 L15,11 L12,11 L12,9 L10,9 L10,7 L8,7 L8,5 L3,7 L2,9 L0,9 L0,12 L-3,11 L-1,6 L1,6 L-1,2 Z M-2,4 Z M-4,12 Z " fill="#224A70" transform="translate(813,594)"/>
<path d="M0,0 L6,0 L4,2 L-6,5 L-6,7 L-9,7 L-10,9 L-12,8 L-12,10 L-14,10 L-14,8 L-19,6 L-15,4 Z " fill="#193D67" transform="translate(1155,405)"/>
<path d="M0,0 L3,0 L2,3 L-5,2 L-5,4 L-29,5 L-37,4 L-38,6 L-38,4 L-40,4 L-40,2 L-13,2 Z " fill="#DEE9F3" transform="translate(781,1673)"/>
<path d="M0,0 L3,1 L1,10 L-2,10 L-1,14 L-2,19 L-6,20 L-9,20 L-9,17 L-3,9 Z " fill="#315274" transform="translate(794,1609)"/>
<path d="M0,0 L4,1 L6,0 L17,3 L17,5 L22,6 L22,9 L12,6 L-4,3 L0,2 Z " fill="#D4E0E9" transform="translate(979,1463)"/>
<path d="M0,0 L2,1 L3,24 L3,28 L2,32 L7,33 L7,34 L0,34 Z " fill="#E0EFF9" transform="translate(1808,1435)"/>
<path d="M0,0 L1,4 L-1,4 L-1,6 L-5,10 L-6,12 L-8,12 L-9,16 L-13,21 L-17,24 L-19,24 L-17,20 L-10,12 L-9,10 L-7,10 L-5,5 L-3,5 L-1,1 Z " fill="#C3D4E0" transform="translate(1134,633)"/>
<path d="M0,0 L2,0 L3,2 L6,3 L13,11 L16,13 L15,16 L13,15 L13,13 L9,13 L9,11 L7,11 L7,9 L3,9 L1,6 L-1,7 Z " fill="#355778" transform="translate(797,576)"/>
<path d="M0,0 L2,0 L2,2 L6,4 L12,11 L11,13 L8,13 L7,17 L5,17 L4,11 L5,8 L3,8 Z " fill="#2F5477" transform="translate(783,563)"/>
<path d="M0,0 L2,1 L1,3 L1,10 L-3,10 L-5,14 L-10,17 L-12,18 L-12,13 L-1,2 Z " fill="#335778" transform="translate(1435,495)"/>
<path d="M0,0 L2,4 L2,8 L0,8 L0,10 L2,11 L1,23 L-5,25 L-7,23 L-2,23 L-2,8 L-1,1 Z " fill="#EAF3F9" transform="translate(1481,1649)"/>
<path d="M0,0 L17,0 L17,2 L11,3 L7,2 L3,4 L2,19 L0,20 Z " fill="#DFEFF8" transform="translate(1808,1508)"/>
<path d="M0,0 L3,3 L6,12 L6,28 L4,28 L4,17 L2,17 L2,8 L0,7 Z " fill="#204267" transform="translate(1289,1466)"/>
<path d="M0,0 L5,5 L13,13 L16,16 L16,18 L9,17 L7,12 L2,8 L2,5 L-1,5 Z " fill="#2E5071" transform="translate(903,988)"/>
<path d="M0,0 L1,4 L-3,10 L-8,11 L-8,13 L-11,13 L-12,17 L-15,17 L-16,21 L-19,20 L-8,8 Z " fill="#C1D1DE" transform="translate(1199,982)"/>
<path d="M0,0 L2,2 L2,5 L2,8 L-2,11 L-4,11 L-4,13 L-12,19 L-10,14 Z " fill="#3F566D" transform="translate(495,950)"/>
<path d="M0,0 L7,6 L12,11 L11,13 L7,14 L4,21 L2,21 L3,16 L5,12 L7,12 L7,10 L4,9 L4,7 L2,7 L-1,3 Z " fill="#2E5176" transform="translate(807,884)"/>
<path d="M0,0 L1,3 L-1,7 L-3,7 L-3,9 L-6,9 L-6,11 L-8,11 L-8,13 L-10,13 L-10,15 L-8,15 L-8,17 L-13,21 L-16,20 L-14,17 L-16,15 L-13,15 L-13,13 L-10,11 L-8,8 L-2,6 L-2,3 L-4,2 Z " fill="#1D446B" transform="translate(613,851)"/>
<path d="M0,0 L2,1 L2,3 L9,2 L15,2 L17,3 L17,5 L-8,5 L-7,1 L-6,3 L-1,1 Z " fill="#E1EDF5" transform="translate(927,1544)"/>
<path d="M0,0 L2,3 L4,8 L2,18 L0,17 L-2,18 L-2,1 Z " fill="#F5F9FA" transform="translate(194,1422)"/>
<path d="M0,0 L6,0 L13,1 L16,3 L17,2 L19,3 L19,6 L0,4 L-5,3 L-1,1 Z " fill="#D5E3EC" transform="translate(1212,1398)"/>
<path d="M0,0 L1,2 L3,2 L3,4 L5,4 L5,6 L7,6 L7,8 L9,8 L10,6 L10,8 L12,8 L12,10 L16,11 L16,13 L13,13 L13,15 L15,15 L19,20 L18,22 L9,13 L2,5 L0,3 Z " fill="#1C3E63" transform="translate(814,1129)"/>
<path d="M0,0 L4,1 L4,3 L2,3 L1,7 L-2,9 L-2,14 L-5,17 L-7,17 L-7,15 L-5,15 L-6,14 L-8,14 L-9,16 L-8,12 L-6,7 L-4,7 L-3,4 L-2,4 L-2,1 Z " fill="#1C446F" transform="translate(1205,965)"/>
<path d="M0,0 L2,3 L3,1 L3,4 L-5,11 L-10,16 L-12,12 L-7,6 Z " fill="#305072" transform="translate(678,956)"/>
<path d="M0,0 L1,3 L1,10 L-1,10 L-4,14 L-6,15 L-6,17 L-11,17 L-9,13 L-2,3 Z " fill="#284A6D" transform="translate(613,786)"/>
<path d="M0,0 L2,2 L2,4 L7,6 L8,10 L12,12 L12,14 L16,15 L19,16 L19,19 L14,19 L7,13 L3,8 L1,7 L1,5 L-1,5 Z " fill="#2D4C6D" transform="translate(824,758)"/>
<path d="M0,0 L1,0 L1,47 L0,47 L-1,23 L-2,16 L-2,10 L0,10 Z " fill="#E4F2FC" transform="translate(574,1558)"/>
<path d="M0,0 L6,1 L0,9 L-5,16 L-9,15 L-9,9 L-8,11 L-5,10 L-4,8 L-2,8 L-3,4 L1,3 Z " fill="#294867" transform="translate(725,1512)"/>
<path d="M0,0 L6,1 L5,3 L3,3 L2,5 L-1,4 L1,8 L1,10 L-2,10 L-2,12 L0,12 L4,18 L0,16 L-5,11 L-4,8 L-5,5 L-4,3 L-2,3 L-2,1 Z " fill="#18406B" transform="translate(911,1222)"/>
<path d="M0,0 L1,4 L-7,11 L-10,16 L-13,16 L-14,20 L-18,22 L-18,24 L-23,25 L-17,18 L-3,4 Z " fill="#C1D2E0" transform="translate(1041,1147)"/>
<path d="M0,0 L1,3 L-1,3 L-3,9 L-14,20 L-19,21 L-13,14 L-3,4 L-2,2 L0,2 Z " fill="#D2E0EA" transform="translate(1129,1055)"/>
<path d="M0,0 L5,0 L5,4 L8,3 L8,7 L11,7 L12,16 L7,11 L0,2 Z " fill="#304F6E" transform="translate(884,1631)"/>
<path d="M0,0 L2,0 L3,6 L3,32 L1,32 L0,26 Z " fill="#284263" transform="translate(869,1555)"/>
<path d="M0,0 L2,4 L2,9 L2,12 L4,17 L2,18 L2,26 L4,27 L2,28 L4,30 L2,30 L1,34 L0,34 Z " fill="#EBF2F8" transform="translate(1382,1525)"/>
<path d="M0,0 L32,0 L32,2 L30,2 L29,4 L29,2 L-1,2 Z " fill="#244563" transform="translate(218,1401)"/>
<path d="M0,0 L2,1 L-6,9 L-7,12 L-11,14 L-13,17 L-12,19 L-15,22 L-17,21 L-18,22 L-19,19 L-12,11 L-10,11 L-8,7 Z " fill="#214364" transform="translate(1135,812)"/>
<path d="M0,0 L2,4 L1,9 L-2,13 L-4,13 L-5,16 L-7,16 L-8,12 L-5,7 L-3,7 L-1,2 Z " fill="#294C71" transform="translate(622,773)"/>
<path d="M0,0 L2,0 L2,3 L0,3 L0,5 L-2,5 L-2,7 L-4,7 L-4,9 L-6,9 L-6,11 L-8,11 L-8,13 L-10,13 L-10,15 L-12,15 L-12,17 L-14,17 L-16,21 L-18,23 L-21,22 L-19,22 L-17,17 L-13,16 L-11,12 L-5,5 L-4,2 Z " fill="#234263" transform="translate(1463,703)"/>
<path d="M0,0 L3,1 L1,8 L-2,11 L-2,15 L-3,19 L-5,19 L-5,21 L-8,20 L-5,10 Z " fill="#2E4C6D" transform="translate(678,1508)"/>
<path d="M0,0 L0,3 L-1,5 L2,3 L0,7 L-2,12 L-4,11 L-7,16 L-9,16 L-9,18 L-11,18 L-12,20 L-13,17 L-11,17 L-11,15 L-9,15 L-8,12 L-6,12 L-7,10 L-7,7 Z " fill="#1C446A" transform="translate(1406,527)"/>
</svg>
